<svg width="27" height="27" viewBox="0 0 27 27" fill="none" xmlns="http://www.w3.org/2000/svg">
<path d="M21.8182 26.6667C19.9927 26.6667 18.4029 23.8924 17.5757 19.7933C16.7487 23.8924 15.1588 26.6667 13.3333 26.6667C11.5079 26.6667 9.918 23.8924 9.09093 19.7933C8.2638 23.8924 6.67393 26.6667 4.84847 26.6667C2.17074 26.6667 0 20.6971 0 13.3333C0 5.96953 2.17074 0 4.84847 0C6.67393 0 8.2638 2.77429 9.09093 6.87333C9.918 2.77429 11.5079 0 13.3333 0C15.1588 0 16.7487 2.77429 17.5757 6.87333C18.4029 2.77429 19.9927 0 21.8182 0C24.4959 0 26.6667 5.96953 26.6667 13.3333C26.6667 20.6971 24.4959 26.6667 21.8182 26.6667Z" fill="black"/>
</svg>
